<?xml version="1.0" encoding="UTF-8" standalone="no"?>
<!-- Created with Inkscape (http://www.inkscape.org/) -->

<svg
   width="264.05103mm"
   height="59.520359mm"
   viewBox="0 0 264.05102 59.520359"
   version="1.1"
   id="svg5"
   xml:space="preserve"
   xmlns="http://www.w3.org/2000/svg"
   xmlns:svg="http://www.w3.org/2000/svg"><defs
     id="defs2" /><g
     id="layer1"
     transform="translate(-14.416571,-51.038342)"><path
       style="fill:#8080ff;fill-opacity:1;stroke-width:0.264583"
       d="m 21.160324,110.0971 c -3.042571,-1.09288 -5.269916,-3.37869 -6.216491,-6.37968 -0.913021,-2.89462 -0.597575,-5.562758 0.96381,-8.152208 0.714573,-1.18506 0.864783,-1.6355 0.647025,-1.94023 -1.218923,-1.70582 -2.134939,-4.37359 -2.134939,-6.21771 0,-1.56817 0.656588,-3.75316 1.568772,-5.22055 0.443409,-0.7133 0.806198,-1.3341 0.806198,-1.37956 0,-0.0455 -0.399055,-0.74535 -0.886789,-1.55531 -1.104117,-1.83357 -1.626899,-4.16461 -1.390263,-6.19906 0.15699,-1.3497 1.205996,-3.98085 2.032543,-5.09808 0.234166,-0.31652 0.119811,-0.68892 -0.535033,-1.74234 -0.974246,-1.56724 -1.594145,-3.6885 -1.598568,-5.47022 -0.0062,-2.49557 1.555974,-5.83864 3.494345,-7.47797 3.140167,-2.65571 8.606065,-2.9679 11.774727,-0.67253 1.083244,0.78469 1.083244,0.78469 3.197876,-0.2957 1.757543,-0.89795 2.44656,-1.1017 4.080253,-1.20654 2.3606,-0.15149 4.274498,0.33324 6.10625,1.54655 1.158502,0.76736 1.299501,0.80172 1.721776,0.41956 0.252968,-0.22893 1.164577,-0.73883 2.025796,-1.13311 3.015234,-1.38042 6.726126,-1.1116 9.436356,0.68358 1.216599,0.80584 1.216599,0.80584 2.71802,-0.0983 3.905236,-2.35162 8.673666,-1.84661 12.007341,1.27166 1.904754,1.78167 2.769831,3.72602 2.91201,6.54502 0.131262,2.60254 -0.276828,4.22037 -1.538322,6.0985 -0.698759,1.04032 -0.73147,1.18713 -0.37201,1.66977 1.175131,1.57783 1.821733,3.46738 1.918587,5.60663 0.111942,2.47258 -0.316394,4.12125 -1.546577,5.95276 -0.698759,1.04033 -0.73147,1.18714 -0.37201,1.66978 1.132978,1.52123 1.801697,3.47549 1.9133,5.59142 0.128892,2.44373 -0.27211,4.01294 -1.533951,6.00265 -0.773546,1.21976 -0.773546,1.21976 0.109718,2.53229 1.140642,1.69499 1.570278,3.53356 1.419283,6.073658 -0.296601,4.98955 -4.089799,8.68578 -9.218321,8.98266 -2.325532,0.13463 -3.921892,-0.28098 -5.901515,-1.53642 -1.22899,-0.7794 -1.22899,-0.7794 -2.460596,0.002 -3.434321,2.17798 -7.913312,2.07949 -11.178905,-0.24581 -0.84423,-0.60115 -0.84423,-0.60115 -1.82363,0.0689 -1.436947,0.98312 -4.032179,1.76554 -5.85592,1.76554 -1.765805,0 -4.161091,-0.76187 -5.475486,-1.74158 -0.827005,-0.61643 -0.827005,-0.61643 -2.967628,0.47725 -1.906815,0.97421 -2.380017,1.10375 -4.33237,1.18599 -1.627411,0.0685 -2.532373,-0.03 -3.514662,-0.38287 z m 5.670112,-3.2572 c 0.644708,-0.29248 1.740935,-1.06377 2.436061,-1.71398 0.695126,-0.65021 1.482927,-1.1822 1.750669,-1.1822 0.267743,0 0.957453,0.48634 1.532689,1.08076 1.313273,1.35705 2.698888,2.07993 4.365075,2.27726 1.985317,0.23514 3.46915,-0.30809 5.297283,-1.9393 0.874493,-0.78029 1.828327,-1.41872 2.11963,-1.41872 0.291304,0 0.987002,0.4666 1.545998,1.03689 3.018853,3.07983 7.356239,3.06868 10.219803,-0.0263 0.514276,-0.55584 1.121916,-1.01061 1.350309,-1.01061 0.228391,0 1.063768,0.5927 1.856391,1.31711 2.104541,1.92344 4.547473,2.54573 7.069032,1.80071 1.453313,-0.4294 3.645161,-2.62124 4.074556,-4.07456 0.782939,-2.6499 0.253508,-4.809948 -1.721413,-7.023278 -1.644335,-1.84284 -1.648865,-2.20081 -0.04678,-3.69607 2.909493,-2.71548 2.767428,-7.19349 -0.320122,-10.09041 -1.293844,-1.21396 -1.233077,-1.58371 0.588653,-3.58176 1.451128,-1.59158 1.933697,-2.94443 1.76371,-4.94445 -0.142103,-1.67199 -0.74276,-2.93442 -2.037077,-4.28142 -1.580751,-1.64509 -1.58132,-1.93617 -0.0072,-3.67439 1.681366,-1.85662 2.162498,-2.96387 2.183432,-5.02482 0.03935,-3.87398 -3.203591,-6.79358 -7.099329,-6.3915 -1.701718,0.17563 -2.635986,0.64166 -4.365218,2.17747 -0.734028,0.6519 -1.544573,1.18528 -1.801225,1.18528 -0.256651,0 -0.937286,-0.48634 -1.512522,-1.08075 -1.313273,-1.35705 -2.698887,-2.07993 -4.365074,-2.27727 -1.985317,-0.23513 -3.469151,0.30809 -5.297284,1.9393 -0.874493,0.7803 -1.811552,1.41872 -2.08235,1.41872 -0.270801,0 -1.085858,-0.58113 -1.81124,-1.29141 -1.628478,-1.59456 -3.449232,-2.28177 -5.488014,-2.07135 -1.701718,0.17563 -2.635985,0.64167 -4.365217,2.17747 -0.734018,0.65191 -1.544564,1.18529 -1.801215,1.18529 -0.256651,0 -0.937286,-0.48634 -1.512523,-1.08075 -1.605929,-1.65947 -2.838118,-2.20403 -5.014634,-2.21619 -2.086911,-0.0117 -3.241533,0.43226 -4.613751,1.77386 -1.416391,1.38478 -1.985794,2.74366 -1.968603,4.69808 0.01873,2.12926 0.512908,3.31962 2.068597,4.98278 0.663556,0.70939 1.206466,1.49889 1.206466,1.75444 0,0.25555 -0.594525,1.11514 -1.321168,1.9102 -2.769649,3.03044 -2.727732,6.52573 0.114702,9.56453 0.663556,0.70939 1.206466,1.52136 1.206466,1.80438 0,0.28302 -0.466088,0.99963 -1.035752,1.59248 -3.001564,3.12374 -3.02378,7.15033 -0.05515,9.99645 0.632186,0.6061 1.090903,1.29123 1.090903,1.62936 0,0.32991 -0.49593,1.09376 -1.141132,1.75762 -1.615232,1.66195 -2.14952,2.89192 -2.15452,4.959838 -0.0034,1.4126 0.135172,1.97255 0.775867,3.13479 1.635253,2.9664 5.359502,4.28046 8.322189,2.93639 z m 2.486592,-10.937888 c -0.588621,-0.50631 -0.736345,-0.85696 -0.736345,-1.74787 0,-2.22284 2.511651,-3.20557 4.109367,-1.60785 1.039815,1.03982 1.039815,2.17589 0,3.2157 -0.992936,0.99294 -2.317522,1.04793 -3.373022,0.14002 z m 13.580483,0.33373 c -0.268296,-0.15596 -0.656847,-0.68812 -0.863447,-1.18258 -1.047935,-2.50806 2.227681,-4.54109 3.973573,-2.46622 0.927802,1.10263 0.897546,2.18909 -0.08842,3.17505 -0.82414,0.82414 -2.080154,1.02106 -3.021705,0.47375 z m 12.961863,-0.34917 c -0.956686,-0.88663 -0.980779,-2.53413 -0.05066,-3.46425 0.930116,-0.93011 2.577616,-0.90602 3.464242,0.0507 2.103716,2.26995 -1.143634,5.5173 -3.413582,3.41359 z M 29.69313,83.020452 c -0.568106,-0.33089 -1.256765,-1.61463 -1.256765,-2.34274 0,-0.29598 0.331464,-0.90911 0.736586,-1.36252 1.05478,-1.1805 2.510804,-1.16744 3.582636,0.0322 0.640464,0.7168 0.7405,1.01246 0.613228,1.8124 -0.271518,1.70652 -2.234401,2.70018 -3.675685,1.86071 z m 13.257234,-0.11544 c -1.292254,-0.70202 -1.506733,-2.55129 -0.433665,-3.73912 1.035359,-1.14609 3.087396,-0.90133 3.787079,0.45172 0.598379,1.15713 0.480589,2.05007 -0.384562,2.91522 -0.86279,0.86279 -1.840208,0.98532 -2.968852,0.37218 z m 13.022969,-0.28376 c -1.396254,-1.17487 -1.049079,-3.25606 0.662453,-3.97118 0.784169,-0.32765 1.025321,-0.32765 1.80949,0 1.675501,0.70007 2.014387,2.57148 0.703107,3.88276 -0.985965,0.98596 -2.072421,1.01622 -3.17505,0.0884 z M 29.788405,69.707832 c -0.703372,-0.38985 -1.328329,-1.36327 -1.342664,-2.09131 -0.0325,-1.65067 1.904879,-2.93377 3.458245,-2.29035 0.777571,0.32208 1.559462,1.43102 1.559462,2.21176 0,0.77168 -0.640866,1.78955 -1.361289,2.1621 -0.894466,0.46255 -1.489678,0.46455 -2.313754,0.008 z m 12.918865,-0.36227 c -0.691256,-0.61764 -0.882989,-0.99574 -0.882989,-1.74128 0,-1.82053 1.913316,-3.00142 3.518263,-2.17147 2.15611,1.11497 1.622234,4.16479 -0.79642,4.54962 -0.804645,0.12802 -1.095555,0.0273 -1.838854,-0.63687 z m 13.225409,-0.0419 c -1.597718,-1.59771 -0.614995,-4.10937 1.607852,-4.10937 2.222847,0 3.20557,2.51166 1.607852,4.10937 -1.039815,1.03982 -2.175889,1.03982 -3.215704,0 z m 32.938738,29.88927 c -4.019695,-1.43078 -6.849152,-4.77926 -7.524824,-8.90513 -0.140295,-0.85669 -0.255082,-5.12949 -0.255082,-9.49512 0,-4.36562 0.114787,-8.63842 0.255082,-9.49511 0.520875,-3.18063 2.685362,-6.35798 5.436918,-7.9811 2.261573,-1.33407 3.637758,-1.48211 12.896853,-1.38729 8.102776,0.083 8.600406,0.11676 9.983076,0.6777 2.8317,1.14878 5.55906,3.9653 6.52615,6.73947 0.43816,1.25692 0.4848,2.36895 0.48005,11.44633 -0.006,11.22174 -0.008,11.23452 -1.8622,14.02864 -1.24065,1.86911 -3.5069,3.58671 -5.71735,4.33319 -1.54441,0.52155 -2.17802,0.55469 -10.259786,0.53655 -7.60817,-0.0171 -8.770765,-0.0752 -9.958887,-0.49813 z m 19.613293,-4.42126 c 1.40711,-0.75327 3.13356,-2.65084 3.59113,-3.94708 0.28376,-0.80388 0.36573,-3.05215 0.36573,-10.03191 0,-10.10524 -0.0294,-10.30331 -1.82094,-12.25465 -1.96354,-2.13872 -2.03907,-2.15271 -11.655416,-2.15933 -7.983435,-0.005 -8.511046,0.0241 -9.569586,0.53652 -1.4615,0.7075 -3.166086,2.57592 -3.52312,3.86174 -0.368594,1.32745 -0.383299,18.65117 -0.01696,19.97006 0.316534,1.13954 2.101493,3.2487 3.266832,3.86017 1.433729,0.7523 2.481876,0.8306 10.486894,0.78341 7.451306,-0.0439 7.853726,-0.072 8.875426,-0.61893 z m 13.08498,2.83269 c 0,-2.1273 0,-2.1273 13.5599,-2.12878 8.35064,-7.9e-4 13.93105,-0.10456 14.52603,-0.26983 1.20931,-0.33589 2.78251,-2.03427 3.01061,-3.25015 0.0936,-0.49896 0.1301,-2.34327 0.0811,-4.09846 -0.0965,-3.45551 -0.29168,-3.98654 -1.91007,-5.19602 -0.70088,-0.5238 -1.15314,-0.55118 -11.36073,-0.68773 -10.25318,-0.13716 -10.68438,-0.16351 -12.13935,-0.74183 -1.99666,-0.79362 -3.96851,-2.60111 -4.89427,-4.48631 -0.6917,-1.40857 -0.74093,-1.72887 -0.74093,-4.82079 0,-3.2188 0.0248,-3.36239 0.88208,-5.10461 1.02854,-2.09028 2.66103,-3.54078 4.94813,-4.39649 1.41573,-0.52969 1.94817,-0.54838 15.62167,-0.54838 14.15598,0 14.15598,0 14.07914,2.18281 -0.0769,2.18281 -0.0769,2.18281 -14.27902,2.3151 -13.8903,0.12939 -14.21857,0.14445 -14.94896,0.68579 -1.71072,1.26793 -2.49698,3.64095 -2.06583,6.23492 0.26382,1.58728 0.75648,2.45091 1.89288,3.31822 0.97126,0.74128 0.97126,0.74128 11.70809,0.88472 8.20817,0.10966 10.95492,0.22913 11.66286,0.50729 2.05599,0.80781 3.81637,2.31325 4.97012,4.25034 1.47964,2.48426 1.49721,9.69842 0.0306,12.5552 -0.80053,1.5593 -2.77373,3.46113 -4.31491,4.15883 -1.34671,0.60966 -1.3529,0.60993 -15.83317,0.68668 -14.48594,0.0768 -14.48594,0.0768 -14.48594,-2.05052 z m 48.2669,1.61075 c -3.78857,-1.29299 -6.46069,-4.13564 -7.49318,-7.97138 -0.23137,-0.85955 -0.2982,-3.9496 -0.24033,-11.1125 0.0802,-9.92188 0.0802,-9.92188 0.89967,-11.64167 1.56654,-3.28746 4.43231,-5.63206 7.72632,-6.32124 0.9137,-0.19116 5.82127,-0.29334 14.08906,-0.29334 12.68698,0 12.68698,0 12.68698,2.24895 0,2.24896 0,2.24896 -13.04493,2.24896 -13.04492,0 -13.04492,0 -14.41403,0.68226 -1.61598,0.80528 -2.88093,2.29551 -3.39314,3.99746 -0.45466,1.51072 -0.53031,17.04022 -0.0928,19.05361 0.38308,1.76301 1.72265,3.48921 3.44926,4.4448 1.4342,0.79375 1.4342,0.79375 14.46493,0.87155 13.03073,0.0778 13.03073,0.0778 13.03073,2.18282 0,2.105 0,2.105 -13.16302,2.08645 -11.75884,-0.0166 -13.30623,-0.0674 -14.5055,-0.47673 z m 32.69846,-13.85836 c 0.003,-16.99117 -0.0505,-16.62296 2.9055,-19.85728 2.98838,-3.26976 4.40391,-3.61537 14.82928,-3.62058 8.29221,-0.004 9.58843,0.14192 11.94997,1.34669 1.425,0.72698 3.70018,3.01293 4.43782,4.45881 1.31688,2.5813 1.32282,2.66114 1.32587,17.80465 0.003,14.22135 0.003,14.22135 -2.1138,14.22135 -2.11667,0 -2.11667,0 -2.11667,-8.86354 0,-8.86354 0,-8.86354 -13.49375,-8.86354 -13.49375,0 -13.49375,0 -13.49375,8.86354 0,8.86354 0,8.86354 -2.11666,8.86354 -2.11667,0 -2.11667,0 -2.11381,-14.35364 z m 31.21797,-10.40003 c 0,-1.39077 -0.12603,-3.02788 -0.28008,-3.63802 -0.44011,-1.74317 -1.84906,-3.46063 -3.50275,-4.2697 -1.43741,-0.70326 -1.43741,-0.70326 -10.13822,-0.62354 -8.70082,0.0797 -8.70082,0.0797 -9.75915,0.77567 -2.59938,1.70932 -3.29356,3.24585 -3.30149,7.3077 -0.006,2.97656 -0.006,2.97656 13.48794,2.97656 13.49375,0 13.49375,0 13.49375,-2.52867 z m 9.00116,11.45836 c 0.003,-7.31242 0.11388,-14.04613 0.24658,-14.96379 0.66602,-4.60593 4.28801,-8.47487 8.7139,-9.30803 0.83812,-0.15777 6.65023,-0.26828 14.11005,-0.26828 12.68486,0 12.68486,0 12.59773,6.28385 -0.0856,6.17579 -0.0993,6.30987 -0.79624,7.79676 -0.38999,0.8321 -1.25354,2.09498 -1.91902,2.80641 -1.20991,1.29352 -1.20991,1.29352 -0.28337,2.27593 2.61221,2.76976 3.0438,4.54363 3.0438,12.51034 0,6.16212 0,6.16212 -2.08915,6.16212 -2.08915,0 -2.08915,0 -2.19679,-6.28385 -0.12004,-7.00746 -0.19645,-7.36927 -1.9722,-9.3387 -1.91564,-2.12454 -1.69879,-2.09215 -14.04864,-2.09872 -10.91406,-0.006 -10.91406,-0.006 -10.91406,8.85773 0,8.86354 0,8.86354 -2.24896,8.86354 -2.24895,0 -2.24895,0 -2.24363,-13.29531 z m 27.90822,-9.43236 c 1.24767,-0.57889 2.61868,-1.95427 3.05948,-3.0692 0.17259,-0.43657 0.37428,-2.3118 0.4482,-4.16719 0.13444,-3.37344 0.13444,-3.37344 -10.92966,-3.37344 -12.56607,0 -12.26116,-0.0474 -14.3645,2.23442 -1.34367,1.45772 -1.62584,2.50371 -1.62767,6.03381 -0.001,2.84427 -0.001,2.84427 11.17717,2.83846 10.3256,-0.005 11.25939,-0.0433 12.23698,-0.49686 z"
       id="path225" /></g></svg>
